<?xml version="1.0" encoding="utf-8"?>
<!-- Generator: Adobe Illustrator 24.0.0, SVG Export Plug-In . SVG Version: 6.00 Build 0)  -->
<svg version="1.1" id="Ebene_1" xmlns="http://www.w3.org/2000/svg" xmlns:xlink="http://www.w3.org/1999/xlink" x="0px" y="0px"
	 viewBox="0 0 58.65 44.74" style="enable-background:new 0 0 58.65 44.74;" xml:space="preserve">
<style type="text/css">
	.st0{fill:#3C3C3C;}
</style>
<path class="st0" d="M57.44,18.61c-1.28-1.59-3.29-2.25-5.24-1.96c-3.12-3.08-8.93-5.48-16.09-6.58c-1.11-1.55-2.53-3.12-4.2-4.6
	C26.26,0.5,19.85-1.45,17.6,1.11c-1.55,1.77-0.71,5.22,1.82,8.83C8.18,11.49,0,16.21,0,21.79c0,5.52,7.99,10.19,19.02,11.78
	c-3.38,3.88-4.78,7.87-3.14,9.91c2.14,2.65,8.62,0.97,14.48-3.76c2.43-1.96,4.37-4.14,5.65-6.21c6.4-0.97,11.73-2.97,15.04-5.58
	c1.75,0.46,3.74,0.09,5.31-1.18C58.92,24.7,59.4,21.05,57.44,18.61z"/>
</svg>
