<?xml version="1.0" encoding="utf-8"?>
<!-- Generator: Adobe Illustrator 24.0.0, SVG Export Plug-In . SVG Version: 6.00 Build 0)  -->
<svg version="1.1" id="Ebene_1" xmlns="http://www.w3.org/2000/svg" xmlns:xlink="http://www.w3.org/1999/xlink" x="0px" y="0px"
	 viewBox="0 0 31.03 60.01" style="enable-background:new 0 0 31.03 60.01;" xml:space="preserve">
<style type="text/css">
	.st0{fill:#242424;}
	.st1{fill:#A50042;}
</style>
<g>
	<g>
		<g>
			<g>
				<path class="st0" d="M15.98,56.07c0.27-5.3,0.44-13.17,0.44-13.17c0-0.5,0.32-0.94,0.79-1.08c1.62-0.5,3.41-1.61,4.67-3.1
					c0.19-0.22,0.42-0.39,0.67-0.52c0.02-0.01,0.04-0.02,0.06-0.03c4.84-2.64,8.41-7.82,8.42-13.78c0.01-3.5-0.64-8.02-2.16-12.18
					c1.28,3.81,1.64,7.9,1.63,11.07c-0.01,5.55-2.99,10.41-7.17,13.19c-2.34,1.55-5.06,2.46-7.84,2.45S9.99,38,7.66,36.44
					c-4.17-2.79-7.14-7.66-7.13-13.21C0.54,18.59,2.81,8.66,6.22,3.37l4.74-0.07L6.12,3.22C2.25,8.65,0.01,19.29,0,24.34
					c-0.01,5.96,3.54,11.15,8.38,13.81c0.02,0.01,0.04,0.02,0.06,0.03c0.25,0.13,0.49,0.31,0.67,0.53c1.25,1.49,3.04,2.61,4.66,3.12
					c0.47,0.15,0.79,0.59,0.79,1.08c0,0,0.25,7.91,0.4,13.21C15.12,61.26,15.71,61.35,15.98,56.07z"/>
			</g>
		</g>
	</g>
</g>
<g>
	<path class="st1" d="M3.97,50.39c0-0.13,0.07-0.2,0.2-0.2h1.9c0.23,0,0.41,0.07,0.56,0.22c0.15,0.15,0.22,0.34,0.22,0.56v4.72
		c0,0.1-0.02,0.18-0.05,0.26c-0.04,0.08-0.07,0.14-0.12,0.18c-0.04,0.06-0.1,0.11-0.16,0.14l0.79,2.88c0.03,0.13-0.01,0.2-0.13,0.2
		H6.79c-0.15,0-0.24-0.07-0.26-0.2l-0.72-2.69H4.76v2.69c0,0.13-0.07,0.2-0.2,0.2H4.17c-0.13,0-0.2-0.07-0.2-0.2V50.39z M4.76,50.98
		v4.72h1.11c0.13,0,0.2-0.07,0.2-0.2v-4.32c0-0.13-0.07-0.2-0.2-0.2H4.76z"/>
	<path class="st1" d="M7.6,50.39c0-0.13,0.07-0.2,0.2-0.2h2.23c0.13,0,0.2,0.07,0.2,0.2v0.39c0,0.13-0.07,0.2-0.2,0.2H8.39v2.75H9.5
		c0.13,0,0.2,0.07,0.2,0.2v0.39c0,0.13-0.07,0.2-0.2,0.2H8.39v4.06h1.64c0.13,0,0.2,0.07,0.2,0.2v0.39c0,0.13-0.07,0.2-0.2,0.2H7.8
		c-0.13,0-0.2-0.07-0.2-0.2V50.39z"/>
	<path class="st1" d="M10.36,50.39c0-0.13,0.07-0.2,0.2-0.2h1.9c0.23,0,0.41,0.07,0.56,0.22c0.15,0.15,0.22,0.34,0.22,0.56v7.6
		c0,0.23-0.07,0.42-0.22,0.56c-0.15,0.15-0.34,0.22-0.56,0.22h-1.9c-0.13,0-0.2-0.07-0.2-0.2V50.39z M12.26,58.58
		c0.13,0,0.2-0.07,0.2-0.2v-7.21c0-0.13-0.07-0.2-0.2-0.2h-1.11v7.6H12.26z"/>
</g>
<g>
	<path class="st1" d="M20.58,53.01c0.11,0,0.18,0.07,0.2,0.2l0.52,4.72l0.85-7.53c0.01-0.13,0.07-0.2,0.2-0.2h0.39
		c0.13,0,0.2,0.07,0.2,0.2l-0.98,8.78c-0.02,0.13-0.08,0.2-0.2,0.2h-0.79c-0.12,0-0.19-0.07-0.2-0.2l-0.46-4l-0.46,4
		c-0.02,0.13-0.08,0.2-0.2,0.2h-0.79c-0.12,0-0.19-0.07-0.2-0.2l-0.98-8.78c0-0.13,0.07-0.2,0.2-0.2h0.39c0.11,0,0.18,0.07,0.2,0.2
		l0.85,7.53l0.52-4.72c0.01-0.13,0.07-0.2,0.2-0.2H20.58z"/>
	<path class="st1" d="M23.2,50.39c0-0.13,0.07-0.2,0.2-0.2h0.39c0.13,0,0.2,0.07,0.2,0.2v8.78c0,0.13-0.07,0.2-0.2,0.2H23.4
		c-0.13,0-0.2-0.07-0.2-0.2V50.39z"/>
	<path class="st1" d="M25.43,52.03v7.14c0,0.13-0.07,0.2-0.2,0.2h-0.39c-0.13,0-0.2-0.07-0.2-0.2v-8.78c0-0.13,0.07-0.2,0.2-0.2
		h0.39c0.07,0,0.12,0.02,0.16,0.05c0.03,0.03,0.07,0.08,0.1,0.15l1.24,2.88v-2.88c0-0.13,0.07-0.2,0.2-0.2h0.39
		c0.13,0,0.2,0.07,0.2,0.2v8.78c0,0.13-0.07,0.2-0.2,0.2h-0.39c-0.13,0-0.2-0.07-0.2-0.2v-4.13L25.43,52.03z"/>
	<path class="st1" d="M28.18,50.39c0-0.13,0.07-0.2,0.2-0.2h2.23c0.13,0,0.2,0.07,0.2,0.2v0.39c0,0.13-0.07,0.2-0.2,0.2h-1.64v2.75
		h1.11c0.13,0,0.2,0.07,0.2,0.2v0.39c0,0.13-0.07,0.2-0.2,0.2h-1.11v4.06h1.64c0.13,0,0.2,0.07,0.2,0.2v0.39
		c0,0.13-0.07,0.2-0.2,0.2h-2.23c-0.13,0-0.2-0.07-0.2-0.2V50.39z"/>
</g>
</svg>
