<?xml version="1.0" encoding="utf-8"?>
<!-- Generator: Adobe Illustrator 24.0.0, SVG Export Plug-In . SVG Version: 6.00 Build 0)  -->
<svg version="1.1" id="Ebene_1" xmlns="http://www.w3.org/2000/svg" xmlns:xlink="http://www.w3.org/1999/xlink" x="0px" y="0px"
	 viewBox="0 0 31.03 60.01" style="enable-background:new 0 0 31.03 60.01;" xml:space="preserve">
<style type="text/css">
	.st0{fill:#A50042;}
	.st1{fill:#242424;}
</style>
<g>
	<g>
		<g>
			<g>
				<g>
					<path class="st0" d="M1.37,22.5c-0.95,5.34,3.2,15.23,13.9,15.93c8.93,0.59,18.62-10.74,13.48-22.12
						c-0.45,2.22-4.95,8.23-9.89,6.3c-5.45-2.13-4.19-6.93-9.4-7.81C3.97,13.87,1.82,19.97,1.37,22.5z"/>
				</g>
			</g>
			<g>
				<g>
					<g>
						<path class="st0" d="M22.94,5.73c4.33,1.95,5.3,6.78,5.53,8.8c-2.5-4.25-5.48-4.46-7.18-5.05c-1.19-0.41-1.68-1.82-1.12-2.8
							C20.65,5.83,21.91,5.27,22.94,5.73z"/>
					</g>
				</g>
				<g>
					<g>
						<path class="st0" d="M23.74,1.63c0.34,3.59,2.69,5.59,3.32,6.18c-1.56-2.98-0.56-5.12-0.39-6.14C26.78,1,26.5,0.25,25.62,0.03
							C24.54-0.22,23.68,0.95,23.74,1.63z"/>
					</g>
				</g>
				<g>
					<g>
						<path class="st0" d="M24.47,11.55c2.45,1.49,3.96,3.89,4.2,4.63c-2.01-2.04-4.48-1.96-5.43-2.27c-0.62-0.2-1.37-1.1-1.02-1.82
							C22.63,11.23,23.9,11.2,24.47,11.55z"/>
					</g>
				</g>
			</g>
		</g>
		<g>
			<g>
				<path class="st1" d="M15.98,56.07c0.27-5.3,0.44-13.17,0.44-13.17c0-0.5,0.32-0.94,0.79-1.08c1.62-0.5,3.41-1.61,4.67-3.1
					c0.19-0.22,0.42-0.39,0.67-0.52c0.02-0.01,0.04-0.02,0.06-0.03c4.84-2.64,8.41-7.82,8.42-13.78c0.01-3.5-0.64-8.02-2.16-12.18
					c1.28,3.81,1.64,7.9,1.63,11.07c-0.01,5.55-2.99,10.41-7.17,13.19c-2.34,1.55-5.06,2.46-7.84,2.45S9.99,38,7.66,36.44
					c-4.17-2.79-7.14-7.66-7.13-13.21C0.54,18.59,2.81,8.66,6.22,3.37l4.74-0.07L6.12,3.22C2.25,8.65,0.01,19.29,0,24.34
					c-0.01,5.96,3.54,11.15,8.38,13.81c0.02,0.01,0.04,0.02,0.06,0.03c0.25,0.13,0.49,0.31,0.67,0.53c1.25,1.49,3.04,2.61,4.66,3.12
					c0.47,0.15,0.79,0.59,0.79,1.08c0,0,0.25,7.91,0.4,13.21C15.12,61.26,15.71,61.35,15.98,56.07z"/>
			</g>
		</g>
	</g>
</g>
</svg>
