<?xml version="1.0" encoding="utf-8"?>
<!-- Generator: Adobe Illustrator 24.0.0, SVG Export Plug-In . SVG Version: 6.00 Build 0)  -->
<svg version="1.1" id="Ebene_1" xmlns="http://www.w3.org/2000/svg" xmlns:xlink="http://www.w3.org/1999/xlink" x="0px" y="0px"
	 viewBox="0 0 300 300" style="enable-background:new 0 0 300 300;" xml:space="preserve">
<style type="text/css">
	.st0{fill:#A50042;}
</style>
<path id="waveShape" class="st0" d="M300,300V2.5c0,0-0.6-0.1-1.1-0.1c0,0-25.5-2.3-40.5-2.4c-15,0-40.6,2.4-40.6,2.4
	c-12.3,1.1-30.3,1.8-31.9,1.9c-2-0.1-19.7-0.8-32-1.9c0,0-25.8-2.3-40.8-2.4c-15,0-40.8,2.4-40.8,2.4C60,3.5,41.9,4.2,40.3,4.3
	c-2-0.1-20-0.8-32.2-1.9c0,0-3.1-0.3-8.1-0.7V300H300z"/>
</svg>
